<?xml version="1.0" encoding="iso-8859-1"?>
<!-- Uploaded to: SVG Repo, www.svgrepo.com, Generator: SVG Repo Mixer Tools -->
<svg fill="#edcb17" height="800px" width="800px" version="1.1" id="Layer_1" xmlns="http://www.w3.org/2000/svg" xmlns:xlink="http://www.w3.org/1999/xlink" 
	 viewBox="0 0 512.001 512.001" xml:space="preserve">
<g>
	<g>
		<path d="M336.079,427.329c-0.718,0.029-1.703-0.157-2.426-0.157h-26.607v-0.001c-2.877,0-5.435-0.029-8.19-0.467
			c-0.281,1.299-0.172,2.85-0.172,4.234v15.458c0,15.457-13.106,27.622-28.561,27.622H93.038c-11.17,0-20.258-9.088-20.258-20.258
			c0-11.17,9.088-20.258,20.258-20.258h38.403c29.789,0,54.024-24.031,54.024-53.82c0-2.083-0.13-4.021-0.361-6.042
			c-3.067-26.9-25.957-47.757-53.663-47.757h-12.992c-10.489,0-18.992,8.503-18.992,18.992c0,10.488,8.503,18.992,18.992,18.992
			h12.992c8.845,0,16.04,6.981,16.04,15.826c0,8.845-7.197,15.826-16.04,15.826H93.038c-32.114,0-58.241,26.128-58.241,58.241
			c0,32.115,26.128,58.241,58.241,58.241h177.083c36.401,0,66.544-29.204,66.544-65.605v-15.458
			C336.665,429.775,336.279,428.435,336.079,427.329z"/>
	</g>
</g>
<g>
	<g>
		<path d="M278.424,213.943v159.961c0,15.634,12.987,27.944,28.62,27.944h26.609c13.201,0,24.845-9.151,27.689-22.042
			l34.893-158.687L278.424,213.943z"/>
	</g>
</g>
<g>
	<g>
		<path d="M74.033,20.933C55.96,22.051,41.661,37.11,41.661,55.216v86.419c0,18.108,14.299,33.168,32.373,34.286l19.537,1.2V19.732
			L74.033,20.933z"/>
	</g>
</g>
<g>
	<g>
		<path d="M457.37,16.966C445.646,5.944,430.546,0,414.62,0c-1.323,0-2.688,0.041-4.022,0.124L118.894,18.165v160.522
			l291.667,18.042c17.396,1.084,34.11-4.906,46.808-16.842c12.698-11.937,19.835-28.109,19.835-45.537V62.503
			C477.204,45.075,470.068,28.903,457.37,16.966z"/>
	</g>
</g>
</svg>
